{
  "accessors": [
    {
      "bufferView": 2,
      "componentType": 5126,
      "count": 65532,
      "max": [
        4000,
        174.62939453125,
        4000
      ],
      "min": [
        -4000.002197265625,
        -54.792881011962891,
        -4000
      ],
      "type": "VEC3"
    },
    {
      "bufferView": 2,
      "byteOffset": 786384,
      "componentType": 5126,
      "count": 65532,
      "max": [
        0.5091850757598877,
        1,
        0.56819909811019897
      ],
      "min": [
        -0.50811558961868286,
        0.81070858240127563,
        -0.50848120450973511
      ],
      "type": "VEC3"
    },
    {
      "bufferView": 3,
      "componentType": 5126,
      "count": 65532,
      "max": [
        1,
        0.51238763332366943,
        0.04870152473449707,
        1
      ],
      "min": [
        0.85562664270401001,
        -0.51759159564971924,
        -0.045592516660690308,
        1
      ],
      "type": "VEC4"
    },
    {
      "bufferView": 1,
      "componentType": 5126,
      "count": 65532,
      "max": [
        1,
        1
      ],
      "min": [
        0,
        0
      ],
      "type": "VEC2"
    },
    {
      "bufferView": 1,
      "byteOffset": 524256,
      "componentType": 5126,
      "count": 65532,
      "max": [
        1,
        1
      ],
      "min": [
        0,
        0
      ],
      "type": "VEC2"
    },
    {
      "bufferView": 0,
      "componentType": 5125,
      "count": 387039,
      "max": [
        65531
      ],
      "min": [
        0
      ],
      "type": "SCALAR"
    },
    {
      "bufferView": 2,
      "byteOffset": 1572768,
      "componentType": 5126,
      "count": 65532,
      "max": [
        4000,
        595.036376953125,
        2968.75
      ],
      "min": [
        -2937.57373046875,
        -148.55960083007812,
        -4000
      ],
      "type": "VEC3"
    },
    {
      "bufferView": 2,
      "byteOffset": 2359152,
      "componentType": 5126,
      "count": 65532,
      "max": [
        0.76157116889953613,
        1,
        0.69936162233352661
      ],
      "min": [
        -0.7974621057510376,
        0.60238450765609741,
        -0.56494045257568359
      ],
      "type": "VEC3"
    },
    {
      "bufferView": 3,
      "byteOffset": 1048512,
      "componentType": 5126,
      "count": 65532,
      "max": [
        1,
        0.79793751239776611,
        0.09354642778635025,
        1
      ],
      "min": [
        0.60274022817611694,
        -0.76480406522750854,
        -0.042436953634023666,
        1
      ],
      "type": "VEC4"
    },
    {
      "bufferView": 1,
      "byteOffset": 1048512,
      "componentType": 5126,
      "count": 65532,
      "max": [
        1,
        1
      ],
      "min": [
        0.1328129917383194,
        0.1289059966802597
      ],
      "type": "VEC2"
    },
    {
      "bufferView": 1,
      "byteOffset": 1572768,
      "componentType": 5126,
      "count": 65532,
      "max": [
        1,
        1
      ],
      "min": [
        0.1328129917383194,
        0.1289059966802597
      ],
      "type": "VEC2"
    },
    {
      "bufferView": 0,
      "byteOffset": 1548156,
      "componentType": 5125,
      "count": 387840,
      "max": [
        65531
      ],
      "min": [
        0
      ],
      "type": "SCALAR"
    },
    {
      "bufferView": 2,
      "byteOffset": 3145536,
      "componentType": 5126,
      "count": 65532,
      "max": [
        4000,
        777.65777587890625,
        1718.75
      ],
      "min": [
        -1687.5,
        -172.82968139648438,
        -4000
      ],
      "type": "VEC3"
    },
    {
      "bufferView": 2,
      "byteOffset": 3931920,
      "componentType": 5126,
      "count": 65532,
      "max": [
        0.89393496513366699,
        1,
        0.81885939836502075
      ],
      "min": [
        -0.84449827671051025,
        0.42589077353477478,
        -0.65268558263778687
      ],
      "type": "VEC3"
    },
    {
      "bufferView": 3,
      "byteOffset": 2097024,
      "componentType": 5126,
      "count": 65532,
      "max": [
        1,
        0.88944721221923828,
        0.13731437921524048,
        1
      ],
      "min": [
        0.43945759534835815,
        -0.89826333522796631,
        -0.13089503347873688,
        1
      ],
      "type": "VEC4"
    },
    {
      "bufferView": 1,
      "byteOffset": 2097024,
      "componentType": 5126,
      "count": 65532,
      "max": [
        1,
        1
      ],
      "min": [
        0.28906300663948059,
        0.28515598177909851
      ],
      "type": "VEC2"
    },
    {
      "bufferView": 1,
      "byteOffset": 2621280,
      "componentType": 5126,
      "count": 65532,
      "max": [
        1,
        1
      ],
      "min": [
        0.28906300663948059,
        0.28515598177909851
      ],
      "type": "VEC2"
    },
    {
      "bufferView": 0,
      "byteOffset": 3099516,
      "componentType": 5125,
      "count": 388797,
      "max": [
        65531
      ],
      "min": [
        0
      ],
      "type": "SCALAR"
    },
    {
      "bufferView": 2,
      "byteOffset": 4718304,
      "componentType": 5126,
      "count": 65532,
      "max": [
        4000,
        780.986572265625,
        93.75
      ],
      "min": [
        -78.125,
        -22.181766510009766,
        -4000
      ],
      "type": "VEC3"
    },
    {
      "bufferView": 2,
      "byteOffset": 5504688,
      "componentType": 5126,
      "count": 65532,
      "max": [
        0.74260258674621582,
        1,
        0.69663107395172119
      ],
      "min": [
        -0.54662168025970459,
        0.60340332984924316,
        -0.61612653732299805
      ],
      "type": "VEC3"
    },
    {
      "bufferView": 3,
      "byteOffset": 3145536,
      "componentType": 5126,
      "count": 65532,
      "max": [
        1,
        0.55781930685043335,
        0.03970351442694664,
        1
      ],
      "min": [
        0.63128036260604858,
        -0.77555078268051147,
        -0.01688108965754509,
        1
      ],
      "type": "VEC4"
    },
    {
      "bufferView": 1,
      "byteOffset": 3145536,
      "componentType": 5126,
      "count": 65532,
      "max": [
        1,
        1
      ],
      "min": [
        0.49023398756980896,
        0.48828098177909851
      ],
      "type": "VEC2"
    },
    {
      "bufferView": 1,
      "byteOffset": 3669792,
      "componentType": 5126,
      "count": 65532,
      "max": [
        1,
        1
      ],
      "min": [
        0.49023398756980896,
        0.48828098177909851
      ],
      "type": "VEC2"
    },
    {
      "bufferView": 0,
      "byteOffset": 4654704,
      "componentType": 5125,
      "count": 390042,
      "max": [
        65531
      ],
      "min": [
        0
      ],
      "type": "SCALAR"
    },
    {
      "bufferView": 2,
      "byteOffset": 6291072,
      "componentType": 5126,
      "count": 3306,
      "max": [
        4000,
        10.347419738769531,
        -3093.75
      ],
      "min": [
        3125,
        1.1511067152023315,
        -4000
      ],
      "type": "VEC3"
    },
    {
      "bufferView": 2,
      "byteOffset": 6330744,
      "componentType": 5126,
      "count": 3306,
      "max": [
        0.088964179158210754,
        0.99999988079071045,
        0.078983761370182037
      ],
      "min": [
        -0.09949125349521637,
        0.99470692873001099,
        -0.07913690060377121
      ],
      "type": "VEC3"
    },
    {
      "bufferView": 3,
      "byteOffset": 4194048,
      "componentType": 5126,
      "count": 3306,
      "max": [
        1,
        0.099507756531238556,
        0.0019056849414482713,
        1
      ],
      "min": [
        0.995036780834198,
        -0.088969431817531586,
        -0.0011365998070687056,
        1
      ],
      "type": "VEC4"
    },
    {
      "bufferView": 1,
      "byteOffset": 4194048,
      "componentType": 5126,
      "count": 3306,
      "max": [
        1,
        1
      ],
      "min": [
        0.890625,
        0.88671892881393433
      ],
      "type": "VEC2"
    },
    {
      "bufferView": 1,
      "byteOffset": 4220496,
      "componentType": 5126,
      "count": 3306,
      "max": [
        1,
        1
      ],
      "min": [
        0.890625,
        0.88671892881393433
      ],
      "type": "VEC2"
    },
    {
      "bufferView": 0,
      "byteOffset": 6214872,
      "componentType": 5125,
      "count": 19146,
      "max": [
        3305
      ],
      "min": [
        0
      ],
      "type": "SCALAR"
    }
  ],
  "asset": {
    "extras": {
      "author": "densel (https://sketchfab.com/densel)",
      "license": "CC-BY-4.0 (http://creativecommons.org/licenses/by/4.0/)",
      "source": "https://sketchfab.com/models/ccc6b8db791544319c4f40e1575cd715",
      "title": "Terrain"
    },
    "generator": "Sketchfab-3.18.7",
    "version": "2.0"
  },
  "bufferViews": [
    {
      "buffer": 0,
      "byteLength": 6291456,
      "byteOffset": 0,
      "name": "floatBufferViews",
      "target": 34963
    },
    {
      "buffer": 0,
      "byteLength": 4246944,
      "byteOffset": 6291456,
      "byteStride": 8,
      "name": "floatBufferViews",
      "target": 34962
    },
    {
      "buffer": 0,
      "byteLength": 6370416,
      "byteOffset": 10538400,
      "byteStride": 12,
      "name": "floatBufferViews",
      "target": 34962
    },
    {
      "buffer": 0,
      "byteLength": 4246944,
      "byteOffset": 16908816,
      "byteStride": 16,
      "name": "floatBufferViews",
      "target": 34962
    }
  ],
  "buffers": [
    {
      "byteLength": 21155760,
      "uri": "scene.bin"
    }
  ],
  "images": [
    {
      "uri": "textures/blinn1_normal.png"
    },
    {
      "uri": "textures/blinn1_baseColor.png"
    }
  ],
  "materials": [
    {
      "doubleSided": true,
      "emissiveFactor": [
        0,
        0,
        0
      ],
      "name": "blinn1",
      "normalTexture": {
        "index": 0,
        "scale": 1,
        "texCoord": 1
      },
      "pbrMetallicRoughness": {
        "baseColorFactor": [
          1,
          1,
          1,
          1
        ],
        "baseColorTexture": {
          "index": 1,
          "texCoord": 0
        },
        "metallicFactor": 0,
        "roughnessFactor": 0.59999999999999998
      }
    }
  ],
  "meshes": [
    {
      "name": "pPlane1_blinn1_0",
      "primitives": [
        {
          "attributes": {
            "NORMAL": 1,
            "POSITION": 0,
            "TANGENT": 2,
            "TEXCOORD_0": 3,
            "TEXCOORD_1": 4
          },
          "indices": 5,
          "material": 0,
          "mode": 4
        }
      ]
    },
    {
      "name": "pPlane1_blinn1_0",
      "primitives": [
        {
          "attributes": {
            "NORMAL": 7,
            "POSITION": 6,
            "TANGENT": 8,
            "TEXCOORD_0": 9,
            "TEXCOORD_1": 10
          },
          "indices": 11,
          "material": 0,
          "mode": 4
        }
      ]
    },
    {
      "name": "pPlane1_blinn1_0",
      "primitives": [
        {
          "attributes": {
            "NORMAL": 13,
            "POSITION": 12,
            "TANGENT": 14,
            "TEXCOORD_0": 15,
            "TEXCOORD_1": 16
          },
          "indices": 17,
          "material": 0,
          "mode": 4
        }
      ]
    },
    {
      "name": "pPlane1_blinn1_0",
      "primitives": [
        {
          "attributes": {
            "NORMAL": 19,
            "POSITION": 18,
            "TANGENT": 20,
            "TEXCOORD_0": 21,
            "TEXCOORD_1": 22
          },
          "indices": 23,
          "material": 0,
          "mode": 4
        }
      ]
    },
    {
      "name": "pPlane1_blinn1_0",
      "primitives": [
        {
          "attributes": {
            "NORMAL": 25,
            "POSITION": 24,
            "TANGENT": 26,
            "TEXCOORD_0": 27,
            "TEXCOORD_1": 28
          },
          "indices": 29,
          "material": 0,
          "mode": 4
        }
      ]
    }
  ],
  "nodes": [
    {
      "children": [
        1
      ],
      "name": "RootNode (gltf orientation matrix)",
      "rotation": [
        -0.70710678118654746,
        -0,
        -0,
        0.70710678118654757
      ]
    },
    {
      "children": [
        2
      ],
      "name": "RootNode (model correction matrix)"
    },
    {
      "children": [
        3
      ],
      "matrix": [
        1,
        0,
        0,
        0,
        0,
        0,
        1,
        0,
        0,
        -1,
        0,
        0,
        0,
        0,
        0,
        1
      ],
      "name": "c8856f5efe0e4f63898d5d5b4afafc11.fbx"
    },
    {
      "children": [
        4
      ],
      "name": "RootNode"
    },
    {
      "children": [
        5
      ],
      "matrix": [
        0.0099999997764825821,
        0,
        0,
        0,
        0,
        0.0099999997764825821,
        0,
        0,
        0,
        0,
        0.0099999997764825821,
        0,
        1.3552527156068805e-20,
        0,
        0,
        1
      ],
      "name": "group"
    },
    {
      "children": [
        6,
        7,
        8,
        9,
        10
      ],
      "matrix": [
        1,
        0,
        0,
        0,
        0,
        1,
        0,
        0,
        0,
        0,
        1,
        0,
        0,
        -365.70166015625,
        0,
        1
      ],
      "name": "pPlane1"
    },
    {
      "mesh": 0,
      "name": "pPlane1_blinn1_0"
    },
    {
      "mesh": 1,
      "name": "pPlane1_blinn1_0"
    },
    {
      "mesh": 2,
      "name": "pPlane1_blinn1_0"
    },
    {
      "mesh": 3,
      "name": "pPlane1_blinn1_0"
    },
    {
      "mesh": 4,
      "name": "pPlane1_blinn1_0"
    }
  ],
  "samplers": [
    {
      "magFilter": 9729,
      "minFilter": 9987,
      "wrapS": 10497,
      "wrapT": 10497
    }
  ],
  "scene": 0,
  "scenes": [
    {
      "name": "OSG_Scene",
      "nodes": [
        0
      ]
    }
  ],
  "textures": [
    {
      "sampler": 0,
      "source": 0
    },
    {
      "sampler": 0,
      "source": 1
    }
  ]
}

